<svg xmlns="http://www.w3.org/2000/svg" xmlns:xlink="http://www.w3.org/1999/xlink" version="1.1" id="Layer_1" x="0px" y="0px" width="100px" height="100px" viewBox="0 0 100 100" enable-background="new 0 0 100 100" xml:space="preserve">
<path d="M93.313,39.85H73.37L52.905,4.404L33.054,38.787c-1.475-0.232-2.967-0.362-4.471-0.362C12.822,38.425,0,51.248,0,67.011  c0,15.762,12.822,28.585,28.583,28.585c6.375,0,12.431-2.129,17.331-5.864c0.889,2.65,3.366,4.578,6.312,4.578h41.087  c3.688,0,6.687-3,6.687-6.687V46.536C100,42.85,97.001,39.85,93.313,39.85z M63.361,39.85H52.227c-3.688,0-6.687,3-6.687,6.687  v4.658h-9.642l5.867-10.159h-0.001l11.142-19.297L63.361,39.85z M28.583,86.929c-10.982,0-19.916-8.936-19.916-19.918  c0-10.874,8.757-19.741,19.589-19.916l-7.371,12.768H45.54V77.47C41.919,83.33,35.516,86.929,28.583,86.929z M91.332,85.643H54.207  v-5.899V59.862v-8.668v-2.678h24.167h12.958V85.643z"/>
</svg>